<svg xmlns="http://www.w3.org/2000/svg" width="58" height="31" viewBox="0 0 58 31" fill="none"><path d="M56.3917 20.8138C56.3917 19.9483 55.8713 18.9618 54.5667 17.918C53.2728 16.8826 51.3361 15.9019 48.8461 15.0572C43.8762 13.3715 36.9184 12.3003 29.1059 12.3003C21.291 12.3003 14.2571 13.3436 9.21131 15.0034C6.68302 15.835 4.70929 16.8035 3.38843 17.8307C2.05477 18.8679 1.52881 19.8458 1.52881 20.7002C1.52881 21.5545 2.05477 22.5325 3.38843 23.5697C4.70929 24.5969 6.68302 25.5654 9.21131 26.397C14.2571 28.0567 21.291 29.1001 29.1059 29.1001C36.9235 29.1001 43.8842 28.0845 48.8556 26.4536C51.3466 25.6364 53.282 24.6828 54.5739 23.6684C55.8751 22.6468 56.3917 21.6757 56.3917 20.8138Z" fill="#FFB000" stroke="black" stroke-width="2"></path><path d="M1.29407 10.336L1.50441 17.4238C1.72355 17.2242 1.95758 17.0322 2.20419 16.848C3.74753 15.6949 5.91799 14.7344 8.5122 13.9613C13.7125 12.4117 20.8664 11.5425 28.8169 11.5425C36.7677 11.5425 44.0126 12.4117 49.3034 13.9599C51.9426 14.7322 54.1578 15.6911 55.7351 16.841C55.9651 17.0087 56.1847 17.183 56.3921 17.3639L56.3936 10.2492C56.3938 9.2378 56.1535 8.43364 55.6134 7.92235C53.5353 5.95508 46.98 1.77296 28.8169 1.77296C10.8715 1.77296 4.25705 5.85554 2.09731 7.85034C1.51045 8.39238 1.26212 9.2592 1.29407 10.336Z" fill="#FFB000" stroke="black" stroke-width="2"></path></svg>