<svg xmlns="http://www.w3.org/2000/svg" id="Layer_2" data-name="Layer 2" viewBox="0 0 120.11 160.59"><defs><style>      .cls-1 {        fill: #e6a52b;      }      .cls-2 {        fill: #cd4bb6;      }      .cls-3 {        fill: #6e62d0;      }      .cls-4 {        fill: #251d37;      }      .cls-5 {        fill: #6fbda0;      }    </style></defs><g id="OBJECTS"><g><g><path class="cls-2" d="m116.84,111.57c-.1.43-.22.87-.34,1.33-.09.33-.18.66-.27.98-.07.24-.14.49-.22.74-.09.29-.18.58-.27.87-.06.18-.11.36-.17.53-.07.22-.14.45-.22.67-.19.56-.39,1.14-.62,1.74-.02.03-.02.07-.04.1-.07.19-.15.38-.22.56-.11.31-.23.59-.35.87-.06.16-.13.32-.2.47-.16.38-.32.73-.47,1.06-.03.06-.06.13-.09.19-.13.28-.25.54-.37.77-.01.01-.02.03-.03.05-.09.2-.19.37-.27.53-.06.11-.11.22-.17.32-.11.21-.19.35-.23.43-.12.22-.25.42-.36.62-.03.04-.05.09-.07.12-.33.54-.65,1.01-.92,1.39-.12.16-.23.3-.32.42-.02.03-.04.06-.06.08-.06.08-.12.15-.17.21-.08.1-.16.2-.23.28-.02.03-.05.05-.07.07-.02.03-.05.06-.07.08-.03.04-.07.07-.1.11-.14.16-.25.27-.31.33-.08.08-.16.14-.22.22-.03.02-.05.04-.07.06-.23.22-.4.38-.57.5-.08.06-.15.12-.22.17-.08.06-.16.12-.24.17-.14.09-.28.18-.46.3-.03.01-.08.05-.15.1-.13.08-.34.19-.62.31h0c.36-.58.74-1.22,1.1-1.9.1-.15.19-.31.26-.48.07-.13.13-.24.2-.37.08-.14.15-.29.22-.43h0s0,0,0-.01c0-.01.01-.02.01-.03.02-.03.03-.06.05-.1.31-.62.62-1.28.93-1.96.11-.25.22-.5.33-.76,1.41-3.28,2.76-7.19,3.88-11.46,1.55-5.88,2.41-11.44,2.57-15.86.06-1.33.04-2.56-.03-3.66.08.1.15.21.23.32.11.17.22.34.32.52.08.14.16.28.23.43.07.15.13.29.19.44.04.1.08.21.13.32.04.1.07.19.1.28.19.56.31,1.08.4,1.51.02.08.03.14.04.21,0,0,0,.02,0,.02.01.07.02.13.03.19.01.06.02.12.03.19.02.1.03.22.05.32.05.41.09.82.12,1.25,0,.06,0,.12.01.17,0,.24.02.49.03.74,0,.14,0,.29,0,.43,0,.17,0,.34,0,.51,0,.23,0,.46-.02.7,0,.23-.01.46-.03.69-.01.26-.03.53-.05.8-.03.34-.06.71-.1,1.1-.07.71-.16,1.5-.3,2.43-.11.69-.21,1.32-.32,1.86-.07.38-.15.76-.22,1.14-.02.1-.04.19-.06.27-.03.15-.06.27-.07.36-.02.1-.03.16-.04.18-.04.2-.09.39-.14.59-.03.14-.07.28-.1.42-.03.16-.07.31-.11.46-.03.11-.05.24-.08.36Z"></path><path class="cls-5" d="m116.58,95.99c-.17,4.41-1.03,9.97-2.57,15.86-1.12,4.27-2.47,8.17-3.88,11.46-.11.26-.22.51-.33.76-.31.69-.62,1.34-.93,1.96-.02.03-.03.06-.05.1,0,0-.01.01-.01.03h0s0,.01,0,.01c-.06.14-.14.29-.22.43-.07.13-.13.24-.2.37-.07.17-.16.32-.26.48-.37.68-.74,1.32-1.1,1.9,0,0,0,0,0,0h0c-.15.24-.3.47-.45.68-.2.29-.4.56-.6.82-.2.26-.39.49-.59.71-.13.15-.26.28-.39.42-.19.19-.38.37-.57.53-.25.21-.49.38-.73.52l-.18.1c-.53.26-1.04.36-1.51.23l-4.89-1.26h0s0,0,0,0c.04-.06.08-.11.12-.16,0,0,0-.01.01-.02.08-.11.17-.21.26-.33.02-.02.03-.04.05-.07.05-.07.12-.15.17-.23.01-.01.01-.03.02-.04.06-.07.12-.14.17-.23.16-.22.3-.42.44-.62.18-.26.35-.52.54-.8.04-.07.09-.14.13-.21.09-.14.17-.26.22-.36.02-.04.05-.07.06-.11.11-.16.21-.33.31-.52.04-.07.08-.14.12-.21.04-.08.08-.15.13-.22.04-.06.07-.12.11-.19.05-.1.1-.19.16-.29.02-.04.04-.08.06-.11.01-.03.03-.05.04-.08.04-.07.08-.15.12-.23.03-.05.05-.1.08-.15.11-.19.22-.39.32-.61.07-.12.14-.25.2-.38.12-.23.24-.47.37-.73.05-.1.1-.21.15-.32,0,0,0-.02.02-.03.05-.1.1-.2.15-.31.06-.13.12-.25.18-.38.05-.12.1-.24.16-.36.01-.04.04-.08.05-.12.16-.36.33-.74.51-1.14,0-.02.02-.04.02-.06.05-.1.09-.21.14-.31.04-.1.09-.21.13-.32.02-.05.04-.1.06-.16.04-.11.09-.22.14-.34.27-.62.52-1.28.78-1.98,0-.01.02-.03.02-.05.02-.05.04-.1.07-.17.11-.27.29-.76.52-1.42.09-.26.18-.51.27-.77t0-.01c.06-.19.14-.39.21-.6v-.04c.08-.2.15-.4.22-.62.16-.47.32-.99.49-1.55.02-.07.04-.13.05-.18.02-.06.04-.11.05-.17.06-.18.12-.37.17-.56.05-.18.11-.37.16-.55.02-.06.03-.12.05-.17.05-.17.1-.35.15-.53.05-.17.1-.35.15-.53.03-.11.06-.23.1-.35.06-.25.14-.51.21-.77l.18-.7c.06-.27.14-.56.21-.84.03-.08.05-.15.06-.23.05-.21.11-.42.15-.63.02-.08.04-.16.06-.24.06-.22.11-.44.16-.66.07-.3.14-.59.2-.87.01-.05.02-.11.03-.16.11-.47.21-.94.3-1.39l.07-.37s0-.01,0-.01c.01-.05.02-.12.03-.18.02-.06.03-.12.04-.18.02-.14.05-.27.08-.41.08-.42.16-.84.23-1.24.07-.39.13-.76.2-1.12,0-.02,0-.04,0-.05.02-.09.03-.18.04-.26.05-.29.09-.56.13-.83.05-.27.08-.52.11-.77.03-.24.07-.48.1-.71.01-.08.02-.17.03-.24,0-.02,0-.02,0-.03.02-.15.03-.3.06-.44.01-.07.01-.14.02-.21.02-.17.04-.34.06-.5.01-.1.02-.2.03-.29,0-.04,0-.07.01-.1.01-.14.03-.27.04-.39,0-.01,0-.04,0-.05.02-.19.03-.38.05-.56.08-.99.15-1.91.19-2.78.01-.16.02-.32.03-.49h0c0-.05,0-.09,0-.14,0-.06,0-.11,0-.16,0-.11,0-.23,0-.33,0-.05,0-.1,0-.15,0,0,0-.02,0-.03,0-.14,0-.29,0-.44,0-.1,0-.19,0-.29,0-.44,0-.88-.02-1.3,0-.26-.02-.51-.03-.77-.01-.17-.02-.36-.03-.52t0-.02s0-.03,0-.04c-.01-.15-.02-.3-.03-.45-.04-.39-.07-.78-.11-1.17-.02-.17-.04-.35-.06-.53v-.05c-.05-.28-.1-.57-.16-.88h0s4.18,1.08,4.18,1.08l.7.18s.07.02.11.03c1.34.45,2.13,2.62,2.35,5.9h0c.07,1.11.09,2.33.03,3.66Z"></path><path class="cls-2" d="m114.73,81.02l-1.34,5.19-4.18-1.08c-.02-.13-.05-.26-.08-.4-.02-.13-.06-.27-.09-.4-.04-.16-.07-.32-.12-.49-.06-.23-.12-.47-.2-.7-.07-.24-.15-.47-.23-.71-.05-.13-.1-.26-.15-.39-.11-.28-.22-.55-.35-.81-.06-.14-.13-.27-.2-.4-.02-.06-.05-.11-.08-.16-.02-.05-.05-.1-.08-.14h0c-.08-.15-.16-.29-.25-.43h0c-.08-.14-.16-.27-.25-.4-.16-.25-.35-.49-.53-.72-.08-.09-.16-.19-.24-.28-.12-.14-.25-.28-.38-.41-.22-.22-.46-.44-.71-.65-.03-.02-.07-.05-.1-.07l.69-2.68.33.08,5.85,1.51c.83.21,1.52.68,2.01,1.32.69.88.98,2.06.68,3.23Z"></path><path class="cls-4" d="m106.91,109.64l-.18.7c-.07.26-.14.52-.21.77-.04.12-.07.23-.1.35-.05.18-.1.36-.15.53-.05.18-.1.35-.15.53-.02.05-.04.11-.05.17-.06.19-.11.37-.16.55-.06.19-.11.38-.17.56-.02.06-.03.11-.05.17-.01.05-.03.11-.05.18-.17.56-.33,1.07-.49,1.55-.07.2-.13.41-.21.62v.04c-.08.2-.15.4-.22.6t0,.01c-.09.26-.18.5-.27.77-.23.66-.41,1.15-.52,1.42-.02.06-.04.11-.07.17,0,.02-.02.04-.02.05-.29.74-.54,1.38-.78,1.98-.04.12-.09.23-.14.34-.02.05-.04.1-.06.16-.04.11-.09.21-.13.32-.05.1-.09.21-.14.31,0,.02-.02.04-.02.06-.17.4-.35.78-.51,1.14-.02.04-.04.08-.05.12-.06.12-.11.24-.16.36-.12.24-.22.47-.33.69-.01.01-.01.03-.02.03-.05.11-.1.22-.15.32-.12.26-.25.5-.37.73-.06.13-.13.27-.2.38-.11.22-.21.42-.32.61-.03.05-.05.1-.08.15-.04.08-.08.16-.12.23-.01.03-.03.05-.04.08-.02.04-.04.08-.06.11-.06.1-.11.19-.16.29-.04.06-.07.12-.11.19-.05.07-.09.15-.13.22-.04.06-.08.13-.12.2-.1.18-.21.35-.31.54-.02.03-.04.07-.06.11-.05.1-.13.22-.22.36-.05.07-.09.14-.13.21-.19.28-.36.54-.54.8-.14.2-.28.4-.44.62-.05.09-.11.16-.17.23-.01.01-.01.03-.02.04-.06.08-.12.16-.17.23-.02.02-.03.04-.05.07-.09.11-.18.22-.26.33,0,0-.01.01-.01.02-.05.05-.09.11-.13.15h0s-.06.08-.09.12c-.16.19-.32.37-.48.55-.07.08-.15.16-.23.24-.24.25-.51.52-.84.84-.07.07-.15.13-.22.21-.06.06-.13.12-.19.17-.08.07-.17.14-.24.21-.26.22-.55.43-.8.6-.1.07-.21.14-.32.21-.34.21-.74.44-1.05.62t-.02,0s-.08.04-.11.06c-.31.16-.63.29-.98.42-.17.06-.34.12-.49.16-.27.08-.49.14-.62.17-.11.02-.21.05-.33.07-.08.01-.16.02-.25.04-.1.02-.2.04-.3.04-.1.01-.19.02-.29.03-.03,0-.06.01-.1.01-.34.03-.68.04-1.01.02-.05,0-.11,0-.16,0-.23-.02-.48-.04-.71-.06-.13-.01-.26-.03-.37-.05-.17-.02-.36-.06-.55-.11l-.21-.06c-.13-.03-.25-.07-.37-.1-.05-.02-.1-.03-.15-.04-.05-.02-.1-.04-.16-.06-.03,0-.06-.02-.09-.03,0,0-.02-.01-.03-.02-.07-.03-.15-.06-.22-.09-.04-.01-.08-.03-.12-.04-.01,0-.02-.01-.03-.01-.01,0-.03,0-.03-.02-.01,0-.03,0-.04-.02-.05-.01-.09-.03-.14-.06-.06-.02-.12-.05-.17-.07-.09-.04-.17-.08-.25-.12-.16-.08-.34-.18-.52-.29-.06-.04-.11-.06-.16-.1-.03-.02-.06-.04-.1-.06-.05-.03-.1-.07-.15-.1-.1-.07-.19-.14-.28-.2-.02-.01-.04-.03-.06-.04-.11-.08-.24-.19-.38-.31-.29-.25-.65-.57-1.02-.99-.04-.04-.08-.09-.13-.14-.22-.26-.45-.56-.67-.9h0c-.15-.25-.31-.5-.45-.75l-.14-.24s-.02-.04-.03-.06l-.03-.05c-.13-.26-.24-.5-.35-.73-.03-.09-.07-.17-.1-.25-.03-.07-.05-.13-.08-.19-.14-.37-.25-.66-.31-.86-.07-.2-.14-.44-.21-.71-.02-.07-.04-.14-.06-.22-.02-.05-.02-.1-.04-.15-.02-.08-.04-.15-.06-.23-.05-.19-.09-.39-.13-.59-.02-.1-.04-.19-.06-.29-.03-.09-.04-.19-.05-.29-.04-.2-.06-.39-.1-.57-.04-.23-.07-.47-.1-.7-.04-.41-.11-.97-.16-1.72,0-.17-.02-.34-.03-.52-.03-.56-.04-1.19-.04-1.92,0-.24,0-.49,0-.76,0-.14,0-.27,0-.41,0-.28.02-.56.03-.86,0-.15.01-.3.02-.45.02-.31.03-.63.05-.96.01-.16.03-.33.04-.5.01-.18.03-.36.04-.55.02-.18.03-.36.05-.55.03-.28.05-.56.08-.85.03-.27.06-.56.1-.84.02-.2.05-.4.07-.61.03-.22.06-.44.09-.66.06-.44.12-.9.19-1.37.03-.23.07-.46.11-.69.11-.7.24-1.42.38-2.15.1-.52.2-1.04.3-1.57.1-.45.19-.92.29-1.38.27-1.25.58-2.51.9-3.75.15-.6.32-1.2.48-1.79l.06-.21c.25-.89.51-1.75.76-2.57.1-.32.19-.63.3-.93.06-.19.12-.37.18-.55.04-.13.08-.26.13-.39.09-.25.16-.5.25-.74.04-.12.08-.24.12-.35.04-.12.08-.24.12-.36.02-.06.04-.12.06-.17.03-.07.06-.16.1-.27.19-.53.37-1.03.56-1.52.1-.26.21-.54.32-.83.12-.3.24-.61.36-.89.06-.16.13-.3.19-.45.38-.92.73-1.74,1.06-2.43.13-.28.26-.55.38-.8.04-.1.09-.2.14-.29.07-.15.14-.29.2-.41.04-.08.09-.16.13-.25.03-.07.07-.13.1-.2.43-.83.84-1.58,1.24-2.26.08-.14.15-.27.24-.4.15-.26.31-.51.47-.75.07-.12.15-.24.23-.36.15-.23.3-.45.44-.66.08-.11.15-.21.22-.31.46-.64.89-1.19,1.3-1.67.1-.12.21-.24.31-.36.75-.83,1.42-1.41,2.01-1.88.08-.06.16-.13.26-.18.15-.11.31-.22.47-.33.09-.07.19-.13.28-.18.16-.11.33-.2.49-.29.02-.01.03-.01.04-.02.15-.08.29-.15.43-.22.16-.07.3-.14.44-.2.07-.03.13-.06.2-.08.07-.03.13-.06.19-.08.1-.04.21-.08.31-.11,0-.01.01-.01.02,0l.26-.08c.1-.03.2-.06.29-.08.15-.04.29-.08.44-.11.4-.1.8-.17,1.33-.2.05,0,.1,0,.15-.01.16,0,.32-.02.46-.02.03,0,.06,0,.09,0,.3,0,.57.02.79.04.06,0,.11,0,.15.02.11.01.23.03.36.05.02,0,.05.01.08.01.02,0,.05.01.08.01h0s0,0,.01,0h.01c.07.01.14.02.21.04.08.01.15.03.22.05.43.1.91.24,1.43.46.1.04.19.08.29.12.21.1.43.21.66.34.28.16.56.35.86.56.1.08.2.15.29.23h0s.07.05.1.08c.25.21.48.43.71.65.13.13.26.27.38.41.08.09.16.19.24.28.18.23.36.47.53.72.09.13.17.25.25.39.09.15.18.29.25.43.03.04.05.09.08.14.02.05.05.1.07.16.07.13.14.26.2.4.13.26.24.53.35.81.05.13.1.25.15.39.09.24.16.47.24.71.07.23.14.47.19.7.04.17.08.33.12.49.04.14.07.27.1.4.02.13.05.26.07.4.06.31.11.6.15.88v.05c.03.18.05.36.07.53.04.39.08.78.11,1.17.01.15.02.3.03.45,0,.02,0,.03,0,.04t0,.02c0,.17.02.35.03.52.01.25.03.51.03.77.01.42.02.86.02,1.3,0,.09,0,.19,0,.29,0,.15,0,.29,0,.44,0,0,0,.02,0,.03,0,.05,0,.1,0,.15,0,.11,0,.22,0,.33,0,.06,0,.11,0,.16,0,.04,0,.09,0,.13h0c0,.16,0,.33-.02.49-.04.87-.1,1.79-.19,2.78-.02.19-.03.38-.05.56,0,.01,0,.04,0,.05-.01.13-.02.25-.04.39,0,.03-.01.07-.01.1,0,.09-.02.19-.03.29-.02.16-.03.33-.06.5-.01.07-.01.14-.02.21-.02.14-.04.28-.06.44,0,0,0,.01,0,.03-.01.08-.02.16-.03.24-.03.23-.06.47-.1.71-.04.25-.07.5-.11.77-.03.27-.08.55-.13.83,0,.08-.02.17-.04.26,0,.01,0,.03,0,.05-.06.36-.12.73-.2,1.12-.07.4-.15.82-.23,1.24-.03.14-.06.27-.08.41,0,.06-.02.12-.04.18,0,.06-.02.12-.03.18,0,0,0,0,0,.01l-.07.37c-.09.45-.19.92-.3,1.39-.01.05-.02.11-.03.16-.06.29-.13.58-.2.87-.05.22-.1.44-.16.66-.01.08-.03.16-.06.24-.05.21-.1.42-.15.63-.01.08-.03.16-.06.23-.07.28-.15.57-.21.84Zm-13.48-3.1l.1-.39c3.32-12.83,3.36-24.03.09-25.12-3.31-1.09-8.76,8.55-12.17,21.54-3.42,12.99-3.5,24.41-.2,25.5,3.31,1.1,8.76-8.55,12.17-21.54Z"></path><path class="cls-4" d="m118.57,60.25l-4.52,17.53c-.49-.63-1.17-1.1-2.01-1.32l-5.85-1.51,4.33-16.78c5.49-21.3-7.36-43.1-28.67-48.59-21.3-5.49-43.1,7.36-48.59,28.67l-4.33,16.78-5.85-1.51c-.83-.21-1.66-.14-2.39.18l4.52-17.53C31.85,10.44,58.19-5.11,83.93,1.53c25.74,6.64,41.28,32.98,34.64,58.72Z"></path><path class="cls-3" d="m93.53,106.15l-.1.39c-3.41,12.99-8.87,22.64-12.17,21.54-3.3-1.09-3.22-12.51.2-25.5,3.41-12.99,8.86-22.63,12.17-21.54,3.28,1.09,3.23,12.29-.09,25.12Z"></path><path class="cls-4" d="m37.82,89.77c-.14.59-.29,1.2-.44,1.8-.32,1.24-.66,2.49-1.03,3.72-.14.45-.28.9-.41,1.35-.16.51-.33,1.02-.49,1.52-.23.71-.47,1.4-.71,2.06-.08.22-.16.45-.24.66-.16.44-.33.87-.49,1.29-.08.21-.16.42-.25.62-.08.19-.16.38-.23.57-.11.26-.22.53-.32.78-.11.27-.23.53-.34.79-.07.17-.15.33-.22.5-.08.17-.15.33-.23.5-.08.15-.14.31-.21.45-.14.3-.28.59-.42.87-.06.14-.13.27-.2.41-.13.27-.26.52-.39.76-.06.12-.13.24-.19.36-.12.23-.24.45-.36.67-.35.64-.67,1.19-.97,1.66-.1.15-.19.3-.28.44-.41.63-.73,1.09-.97,1.43-.14.19-.28.39-.43.57-.12.14-.23.3-.36.45-.06.08-.12.16-.19.22-.06.08-.13.15-.19.23-.13.16-.26.31-.4.46-.05.06-.11.12-.16.17-.04.04-.07.08-.11.12-.05.06-.1.11-.16.16-.19.2-.37.38-.53.52-.15.15-.38.35-.68.6-.05.04-.1.09-.16.13-.06.05-.14.11-.21.17-.2.15-.42.31-.66.47l-.05.03s-.04.03-.05.04l-.24.14c-.25.15-.5.29-.76.43h0c-.36.19-.7.34-1.02.46-.06.02-.13.05-.18.06-.54.19-1,.3-1.38.37-.18.03-.34.06-.48.08-.02,0-.05,0-.07,0-.1.02-.22.03-.34.04-.06,0-.12,0-.17.01-.04,0-.08,0-.12,0-.07,0-.12,0-.19,0-.21.01-.42.01-.59,0-.09,0-.18,0-.28-.01-.06,0-.12,0-.18-.02-.05,0-.1,0-.15-.02-.02,0-.03,0-.04,0,0,0-.02,0-.04,0,0,0-.02,0-.03,0-.04,0-.08,0-.12-.02-.08-.01-.16-.02-.23-.03-.01,0-.03,0-.04,0-.03,0-.06,0-.09-.02-.06,0-.11-.01-.17-.02-.05-.01-.1-.03-.15-.03-.11-.03-.24-.06-.37-.09l-.21-.06c-.19-.05-.38-.11-.54-.17-.11-.03-.22-.08-.35-.13-.21-.09-.44-.19-.65-.29-.04-.03-.1-.05-.14-.07-.3-.15-.6-.33-.88-.51-.03-.02-.06-.04-.08-.06-.09-.06-.16-.11-.24-.17-.09-.06-.16-.12-.24-.18-.07-.05-.13-.1-.2-.15-.09-.07-.17-.15-.25-.22-.09-.09-.26-.25-.46-.45-.12-.11-.23-.24-.35-.38-.24-.28-.46-.55-.66-.84-.03-.03-.05-.07-.07-.1t0-.02c-.19-.31-.43-.7-.62-1.05-.06-.12-.13-.23-.18-.34-.13-.26-.28-.59-.41-.91-.03-.09-.07-.2-.11-.3-.03-.08-.06-.17-.09-.24-.03-.1-.06-.2-.1-.29-.14-.44-.24-.81-.33-1.14-.03-.11-.06-.22-.08-.32-.05-.24-.1-.47-.15-.71,0-.05-.02-.1-.03-.15h0s0,0,0,0c0-.06-.02-.13-.04-.2,0,0,0-.01,0-.02-.02-.13-.05-.27-.07-.41,0-.03,0-.05-.01-.08-.01-.09-.03-.19-.04-.28,0-.02,0-.03,0-.04-.02-.09-.03-.18-.03-.28-.03-.27-.06-.51-.09-.75-.03-.32-.06-.62-.09-.96,0-.08,0-.17-.01-.25,0-.17-.02-.31-.02-.42,0-.04,0-.09,0-.12,0-.21-.01-.42-.01-.62,0-.08,0-.16-.01-.23,0-.09,0-.17,0-.26,0-.08,0-.15,0-.22,0-.11,0-.21,0-.33,0-.04,0-.09,0-.13,0-.03,0-.06,0-.09,0-.08,0-.17,0-.26,0-.06,0-.11,0-.17,0-.22,0-.45.01-.69,0-.14,0-.29.01-.43,0-.26.01-.53.03-.81,0-.11.01-.23.02-.35,0,0,0-.02,0-.04.01-.24.03-.49.05-.76.01-.13.02-.26.03-.39.01-.04,0-.09.01-.13.03-.39.07-.81.11-1.25,0-.02,0-.04,0-.06,0-.11.02-.23.03-.34.01-.11.02-.22.04-.34,0-.06.01-.11.02-.17.02-.12.03-.24.04-.36.08-.64.17-1.32.27-2.11,0-.01,0-.04,0-.06,0-.06.02-.12.02-.18.04-.29.11-.8.23-1.49.05-.27.09-.54.14-.8t0-.01c.04-.21.07-.42.11-.63v-.04c.05-.22.09-.43.13-.64.09-.49.2-1.02.32-1.59.01-.07.03-.13.04-.18,0-.06.02-.12.04-.18.04-.19.08-.38.12-.58.04-.18.08-.37.12-.56.02-.06.03-.12.04-.18.04-.18.08-.35.12-.53.04-.18.08-.36.12-.54.03-.11.06-.23.08-.35.06-.25.12-.51.19-.77l.18-.7c.08-.27.15-.56.22-.84.01-.08.03-.16.06-.23.05-.21.11-.42.17-.62.02-.08.04-.16.07-.24.06-.22.12-.44.18-.65.08-.29.16-.58.25-.86.01-.05.03-.11.05-.16.13-.47.27-.92.41-1.36l.11-.36s0-.01,0-.01c.01-.05.04-.11.06-.17.02-.06.03-.12.05-.18.05-.13.09-.26.13-.4.13-.41.27-.81.4-1.2.13-.38.25-.73.37-1.08.01-.01.02-.03.02-.05.03-.09.06-.17.09-.25.09-.28.19-.54.29-.79.09-.25.19-.5.27-.73.09-.23.17-.46.26-.67.03-.08.06-.16.09-.23.01-.01.01-.02.01-.03.06-.14.11-.28.16-.41.02-.07.05-.13.08-.19.06-.16.13-.32.19-.47.04-.1.08-.19.11-.27.02-.03.03-.06.04-.1.05-.13.11-.24.16-.36,0-.01.02-.03.02-.05.07-.17.15-.33.23-.51.41-.91.79-1.75,1.18-2.53.07-.15.14-.29.22-.43h0c.02-.05.04-.09.06-.13.02-.05.05-.1.07-.15.05-.1.1-.2.16-.3.02-.05.04-.09.07-.13,0,0,.01-.02.01-.03.07-.13.14-.25.21-.38.04-.09.09-.17.14-.25.21-.39.43-.77.64-1.13.13-.22.26-.44.4-.66.1-.15.19-.3.28-.44t.01-.01s.01-.03.02-.04c.08-.13.16-.25.25-.38.22-.32.44-.65.66-.97.1-.14.2-.28.31-.43l.03-.03c.17-.23.35-.46.56-.7.16-.21.34-.41.53-.62.11-.12.22-.24.34-.37.33-.35.68-.7,1.06-1.03.11-.09.21-.18.32-.27.23-.19.46-.37.7-.54.12-.09.24-.17.37-.25.09-.07.19-.13.28-.18.14-.09.28-.17.43-.25.14-.08.27-.15.42-.22.26-.14.54-.26.81-.38.11-.04.23-.09.35-.13.17-.06.35-.12.53-.18.3-.09.61-.16.93-.22.04,0,.08-.01.12-.02.12-.02.24-.04.36-.06.36-.04.7-.07,1.02-.07.26,0,.51,0,.74.02.11,0,.21.02.31.03.56.05,1.05.16,1.47.29.07.02.15.04.22.06.07.02.14.04.2.07,0,0,0,0,.01,0h.01s0,0,0,0c.03.01.05.02.07.03.03.02.06.02.08.03.12.05.23.09.34.13.05.01.09.04.14.06.21.09.45.2.71.35.03.02.06.03.08.04.13.07.26.15.4.24.04.03.09.05.13.08.45.29.77.54,1.07.82.11.1.22.2.33.31.07.07.14.14.22.21l.18.2s.01,0,0,.02c.07.08.14.16.22.24.04.05.09.1.13.16.05.06.09.11.13.17.09.12.19.25.29.39.09.12.18.26.27.4,0,.02.01.03.02.04.1.15.2.32.29.49.05.09.11.19.16.3.09.17.18.35.25.52.05.09.09.19.13.28.29.69.59,1.53.85,2.62.03.15.07.3.1.46.13.61.24,1.31.33,2.09.01.12.02.24.04.38.03.25.04.52.07.79,0,.14.02.28.03.42.02.28.04.58.04.88.01.15.01.3.02.46.02.79.02,1.65,0,2.58,0,.07,0,.14,0,.22,0,.1,0,.19,0,.28,0,.14-.02.3-.03.46,0,.1,0,.21-.02.32-.01.28-.03.57-.06.88-.05.77-.13,1.65-.24,2.64-.02.15-.03.31-.05.48-.04.31-.08.63-.12.96-.04.31-.09.61-.12.88-.07.51-.15,1.04-.25,1.6-.02.12-.03.21-.05.29,0,.06-.02.12-.03.18-.02.12-.04.25-.07.37-.02.12-.04.24-.06.36-.04.25-.09.51-.14.77-.02.13-.05.27-.08.4-.03.18-.07.38-.11.57-.05.32-.12.63-.19.96-.17.84-.36,1.72-.58,2.62l-.06.21Zm-12.75,23.81c3.42.64,8.87-9.4,12.16-22.42,3.3-13.02,3.2-24.09-.23-24.74-3.39-.63-8.77,9.19-12.07,22.03l-.1.39c-3.29,13.02-3.19,24.1.24,24.74Z"></path><path class="cls-3" d="m37.23,91.17c-3.29,13.02-8.74,23.06-12.16,22.42-3.43-.64-3.53-11.72-.24-24.74l.1-.39c3.3-12.83,8.68-22.66,12.07-22.03,3.42.65,3.53,11.72.23,24.74Z"></path><path class="cls-2" d="m29.26,55.12l-.69,2.68s-.08.01-.12.02c-.32.06-.63.14-.93.22-.18.05-.36.11-.53.18-.12.04-.24.09-.35.13-.27.12-.55.24-.81.38-.14.07-.28.14-.42.22-.15.08-.29.17-.43.25-.09.05-.19.11-.28.18-.13.08-.25.16-.37.25-.24.17-.47.35-.7.54-.11.09-.21.17-.32.27-.38.33-.73.68-1.06,1.03-.12.13-.23.25-.34.37-.19.21-.37.41-.53.62l-4.18-1.08,1.34-5.19c.3-1.17,1.13-2.06,2.15-2.5.73-.32,1.56-.4,2.39-.18l5.85,1.51.33.08Z"></path><path class="cls-5" d="m17.2,61.4l4.18,1.08c-.21.24-.39.47-.56.7l-.03.03c-.11.15-.21.3-.31.43-.23.32-.44.64-.66.97-.08.13-.16.25-.25.38-.01.01-.01.03-.02.04t-.01.01c-.09.14-.18.3-.28.44-.13.22-.27.43-.4.66-.21.36-.43.74-.64,1.13-.05.08-.09.16-.14.25-.07.13-.14.26-.21.38,0,0-.01.02-.01.03-.03.04-.05.09-.07.13-.05.09-.11.19-.16.3-.03.05-.05.09-.07.15-.02.04-.04.08-.06.11h0c-.07.15-.15.3-.21.45-.39.78-.77,1.62-1.18,2.53-.08.18-.15.35-.23.51,0,.01-.02.03-.02.05-.05.12-.1.23-.16.36,0,.03-.02.07-.04.1-.04.08-.07.17-.11.27-.06.15-.13.3-.19.47-.02.07-.05.13-.08.19-.05.13-.1.27-.16.41,0,0,0,.01-.01.03-.03.07-.06.15-.09.23-.08.21-.17.44-.26.67-.1.23-.19.47-.27.73-.1.25-.2.51-.29.79-.03.08-.06.16-.09.25,0,.01,0,.03-.02.05-.12.35-.25.7-.37,1.08-.14.39-.27.79-.4,1.2-.04.13-.08.26-.13.4-.02.06-.04.12-.05.18-.02.06-.04.12-.06.17,0,0,0,0,0,.01l-.11.36c-.13.44-.27.9-.41,1.36-.01.05-.03.11-.05.16-.09.28-.17.57-.25.86-.06.21-.13.43-.18.65-.03.08-.05.16-.07.24-.06.21-.11.41-.17.62-.03.08-.05.15-.06.23-.07.28-.15.57-.22.84l-.18.7c-.07.26-.13.52-.19.77-.02.12-.05.24-.08.35-.04.18-.09.36-.12.54-.04.18-.09.36-.12.53,0,.06-.02.12-.04.18-.04.19-.08.38-.12.56-.04.2-.09.39-.12.58-.02.06-.03.11-.04.18-.01.05-.03.11-.04.18-.12.57-.23,1.1-.32,1.59-.04.22-.08.44-.12.64v.04c-.05.2-.08.42-.12.63t0,.01c-.05.27-.09.53-.14.8-.12.69-.2,1.2-.23,1.49,0,.06-.02.12-.02.18,0,.02,0,.04,0,.06-.11.74-.21,1.44-.27,2.11-.02.12-.03.24-.04.36,0,.06-.01.11-.02.17-.02.12-.02.23-.04.34,0,.11-.02.23-.03.34,0,.02,0,.04,0,.06-.04.43-.08.85-.11,1.25,0,.04,0,.09-.01.13,0,.13-.02.27-.03.39-.01.13-.02.27-.03.41,0,.12-.02.23-.02.35,0,.02,0,.03,0,.04,0,.12-.02.24-.02.35-.02.29-.02.56-.03.81,0,.15-.01.3-.01.43-.01.24-.01.47-.01.69,0,.06,0,.11,0,.17,0,.09,0,.18,0,.26,0,.03,0,.06,0,.09,0,.04,0,.09,0,.13,0,.12,0,.22,0,.33,0,.08,0,.15,0,.22,0,.09,0,.17,0,.26,0,.09,0,.16,0,.24,0,.22,0,.42.02.61,0,.04,0,.08,0,.12,0,.11.01.25.02.42,0,.08.01.17.01.25.03.34.06.64.09.96.02.24.05.49.09.75,0,.1.02.19.03.28,0,.02,0,.03,0,.04.01.1.03.19.04.28,0,.03,0,.05.01.08.02.14.05.28.07.41,0,0,0,.02,0,.02.01.06.02.13.03.19h0s0,0,0,0l-4.89-1.26c-.47-.12-.87-.45-1.2-.93l-.1-.18c-.15-.24-.28-.51-.39-.81-.09-.23-.17-.48-.24-.74-.05-.18-.09-.36-.14-.55-.07-.29-.13-.59-.17-.91-.05-.32-.1-.65-.13-1.01-.03-.26-.05-.53-.07-.81h0s0-.02,0-.02c-.04-.68-.05-1.42-.05-2.19-.01-.18-.01-.36,0-.54,0-.14,0-.28,0-.42,0-.16,0-.33.02-.48h0s0,0,0-.01h0s0-.02,0-.03c0-.04,0-.07,0-.11.03-.69.07-1.42.14-2.17.03-.27.05-.55.08-.82.35-3.56,1.06-7.62,2.15-11.9,1.49-5.9,3.43-11.18,5.42-15.12.59-1.19,1.2-2.26,1.79-3.19h0c1.78-2.77,3.52-4.29,4.91-4.03.04,0,.08.01.11.02l.71.18Z"></path></g><path class="cls-2" d="m1.91,102.22h0c-.19-.24-.32-.44-.4-.58-.04-.08-.07-.13-.09-.16-.1-.18-.18-.34-.26-.48-.04-.09-.08-.18-.12-.27-.04-.08-.07-.17-.11-.26-.08-.19-.16-.41-.25-.72,0-.02-.02-.06-.03-.09-.02-.09-.05-.19-.09-.29-.03-.09-.07-.23-.12-.44,0-.05-.02-.1-.03-.14,0-.03-.02-.07-.02-.11,0-.03-.02-.06-.02-.1-.02-.11-.04-.23-.06-.36-.01-.08-.03-.17-.04-.27,0-.03-.01-.06-.01-.1-.02-.16-.05-.33-.08-.53-.05-.47-.1-1.03-.13-1.66,0-.04,0-.09,0-.14,0-.22-.02-.46-.02-.71,0-.09,0-.25,0-.49,0-.11,0-.24,0-.36,0-.18,0-.38.02-.6,0-.02,0-.04,0-.06.01-.26.03-.54.05-.85,0-.07,0-.14.01-.21.03-.36.06-.74.1-1.16.01-.17.03-.34.05-.51.03-.3.06-.61.11-.93.03-.19.05-.39.08-.59,0-.04.01-.07.01-.1.09-.63.19-1.24.3-1.82.04-.23.08-.46.13-.7.03-.18.07-.37.11-.55.06-.29.12-.59.19-.89.05-.26.11-.51.17-.75.08-.32.16-.66.23-.99.11-.46.23-.91.34-1.33.03-.12.07-.24.1-.35.04-.15.08-.31.13-.46.04-.14.07-.28.12-.42.06-.2.11-.39.17-.59,0-.03.02-.09.05-.18.03-.09.07-.2.11-.35.03-.08.05-.17.08-.26.12-.36.23-.73.36-1.1.17-.53.38-1.13.62-1.78.33-.88.63-1.62.91-2.27.16-.36.31-.69.45-1.01.11-.25.23-.49.34-.73.1-.21.2-.41.31-.61.1-.21.21-.42.32-.62.08-.15.16-.29.25-.44.07-.13.14-.25.21-.37.13-.22.26-.43.38-.63.03-.05.06-.1.1-.15.24-.36.47-.71.71-1.04.06-.08.13-.17.2-.26.04-.05.08-.1.12-.15.04-.05.08-.1.12-.16,0,0,.01-.01.02-.02.04-.05.08-.11.14-.17.29-.33.65-.73,1.08-1.13.07-.07.14-.14.22-.2.09-.07.17-.15.26-.22.12-.1.25-.19.38-.29.13-.09.26-.18.41-.27.17-.11.35-.21.53-.3.12-.06.24-.12.36-.17-.6.93-1.2,1.99-1.79,3.19-1.99,3.94-3.92,9.23-5.42,15.12-1.08,4.28-1.79,8.34-2.15,11.9-.03.28-.05.55-.08.82-.06.75-.11,1.47-.14,2.17,0,.04,0,.07,0,.11,0,0,0,.02,0,.03,0,0,0,0,0,0h0c-.01.16-.02.33-.02.49,0,.14,0,.28,0,.42-.02.18-.01.36,0,.54,0,.77.01,1.51.05,2.19Z"></path><path class="cls-1" d="m65.88,109.72s0,0,0,0c-3.42-.89-3.17-5.56-1.96-18.91.41-4.48,1.03-11.28.86-14.96-1.93,3.14-4.68,9.39-6.48,13.51-5.4,12.28-7.44,16.48-10.86,15.61,0,0,0,0,0,0-3.81-.98-3.83-6.71-3.86-14.63-.01-2.57-.03-6.16-.33-8.14-1.24,1.34-3,4.09-4.15,5.89-3.2,5.01-5.72,8.96-9.07,8.1,0,0,0,0,0,0-1.3-.34-2.07-1.66-1.74-2.96.29-1.11,1.3-1.84,2.4-1.81,1.02-.74,3.07-3.97,4.33-5.93,3.32-5.2,6.19-9.68,9.87-8.74,0,0,0,0,0,0,3.49.91,3.51,5.95,3.54,13.57,0,2.36.02,5.81.29,8.11,1.52-2.74,3.62-7.52,5.15-11.01,6.2-14.11,8.72-18.96,12.57-18,3.87,1.03,3.73,6.49,2.33,21.84-.35,3.79-.82,9-.81,12.13,1.34-1.88,3.02-4.9,4.17-6.96,3.72-6.66,6.17-11.06,9.66-10.17h0c3.68.95,4.02,6.27,4.41,12.42.15,2.33.39,6.14.92,7.29.97.51,1.5,1.64,1.22,2.75-.33,1.3-1.65,2.08-2.95,1.75,0,0,0,0,0,0-3.35-.86-3.64-5.55-4.02-11.47-.14-2.13-.34-5.39-.78-7.16-1.22,1.59-2.97,4.72-4.22,6.97-3.86,6.92-6.65,11.92-10.46,10.94Zm20.7-3.97s0,0,0,0c0,0,0,0,0,0h0Zm-55.36-14.28s0,0,0,0c0,0,0,0,0,0h0Z"></path><path class="cls-4" d="m97.98,134.26c-.18-1.52-.52-2.99-1.05-4.43-.47-1.29-2.55-.73-2.07.57,1.9,5.17,1.22,10.92-1.33,15.75-2.71,5.13-7.34,8.86-12.8,10.74-11.12,3.83-25.6.63-32.7-9.19-.32-.44-.62-.9-.91-1.37,3.17-2.3,5.89-5.27,7.49-8.76,1.38-3.02,1.78-6.61-.23-9.46-1.77-2.51-4.89-3.81-7.78-2.43-2.55,1.21-3.98,4.15-4.47,6.8-.62,3.34-.24,6.87.84,10.07.36,1.08.81,2.1,1.31,3.09-.63.4-1.27.78-1.94,1.12-4.76,2.48-10.32,3.53-15.65,2.81-10.87-1.45-19.61-10.64-21.45-21.31-.22-1.3-.32-2.62-.32-3.94,0-1.38-2.16-1.39-2.15,0,.04,12.19,8.83,23.83,20.74,26.82,5.81,1.46,12.07.86,17.58-1.44,1.44-.6,2.88-1.34,4.25-2.19,6.18,9.83,19.07,14.36,30.44,12.76,6.44-.91,12.74-3.9,16.9-8.99,3.84-4.7,6.03-10.94,5.29-17.03Zm-53.67,4.9c-.52-2.71-.53-5.76.55-8.34.92-2.21,3.04-4.36,5.62-3.3,2.69,1.11,3.58,4.3,2.98,6.93-.68,2.97-2.64,5.57-4.76,7.7-.82.82-1.7,1.57-2.63,2.27-.81-1.66-1.41-3.42-1.76-5.24Z"></path></g></g></svg>