<svg xmlns="http://www.w3.org/2000/svg" id="Layer_2" data-name="Layer 2" viewBox="0 0 82.7 115.24"><defs><style>      .cls-1 {        fill: #fff;      }      .cls-2 {        fill: #cd4bb6;      }      .cls-3 {        fill: #6e62d0;      }      .cls-4 {        fill: #251d37;      }      .cls-5 {        fill: #6fbda0;      }    </style></defs><g id="OBJECTS"><g><g><path class="cls-3" d="m65.09,41.71v.05s0,.1-.02.18c0,.08-.02.15-.04.23-.03.14-.08.28-.14.42-.03.07-.06.14-.11.21-.03.06-.07.13-.12.19-.07.12-.15.23-.25.35-.05.06-.11.12-.16.18-.07.07-.14.15-.21.22-.08.08-.15.15-.24.22-.08.07-.17.15-.26.22-.19.15-.41.31-.65.46-.19.12-.4.25-.62.36-.12.07-.24.14-.37.2-5.24-2.7-16.42-4.57-29.36-4.57s-24.12,1.87-29.36,4.57c-.12-.07-.25-.13-.37-.2-1.31-.72-2.2-1.51-2.59-2.33-.09-.2-.15-.4-.19-.61v-.02c-.02-.1-.03-.21-.03-.32,0-4.45,14.57-8.05,32.55-8.05s32.54,3.6,32.54,8.05Z"></path><path class="cls-2" d="m32.55,40.62c12.94,0,24.12,1.87,29.36,4.57-5.24,2.71-16.42,4.58-29.36,4.58s-24.12-1.87-29.36-4.58c5.24-2.7,16.42-4.57,29.36-4.57Z"></path><path class="cls-5" d="m73.13,51.12c6.63,3.09,10.05,10.62,9.52,18.66-1.02,15.72-11.54,28.85-24.43,33.28.53-3.96,1.05-8.06,1.55-12.18,5.98-3.42,10.67-9.33,12.72-16.9,1.04-3.82,1.82-9.31-1.41-12.1-2.45-2.11-5.46-1.73-8.01-.26.47-4.44.87-8.38,1.19-11.55,2.9-.58,5.91-.32,8.86,1.05Z"></path><path class="cls-5" d="m65.03,42.18c.02-.08.03-.15.04-.23-.08.81-.36,3.75-.8,8.12-.32,3.18-.72,7.12-1.19,11.55-.9,8.56-2.05,18.97-3.31,29.26-.5,4.12-1.03,8.22-1.55,12.18-.18,1.27-.35,2.53-.52,3.76-.34,2.47-2.09,4.5-4.46,5.25-6.74,2.11-13.72,3.17-20.7,3.17s-13.98-1.06-20.72-3.18c-2.37-.75-4.12-2.77-4.46-5.24-1.85-13.28-3.61-28.68-4.95-41.17C1.11,53.37.21,43.9.03,42.05c.03.21.09.41.19.61.39.83,1.27,1.61,2.59,2.33.12.07.25.14.37.2,5.24,2.71,16.42,4.58,29.36,4.58s24.12-1.87,29.36-4.58c.13-.06.25-.13.37-.2.22-.12.42-.24.62-.36.24-.15.46-.3.65-.46.09-.07.18-.14.26-.22.08-.07.16-.14.24-.22.08-.07.15-.15.21-.22.06-.05.11-.12.16-.18.09-.12.18-.23.25-.35.05-.06.08-.12.12-.19.05-.07.08-.14.11-.21.06-.14.11-.28.14-.42Z"></path></g><g><path class="cls-4" d="m40.44,64.64v8.55h-15.8v-8.55c0-4.34,3.56-7.91,7.91-7.91,2.17,0,4.14.89,5.58,2.32,1.43,1.43,2.32,3.41,2.32,5.58Z"></path><path class="cls-4" d="m40.44,76.07v7.84c0,4.35-3.56,7.91-7.9,7.91s-7.91-3.56-7.91-7.91v-7.84h15.8Zm-4.97,7.2c0-1.61-1.31-2.92-2.92-2.92s-2.92,1.3-2.92,2.92,1.31,2.92,2.92,2.92,2.92-1.31,2.92-2.92Z"></path><path class="cls-4" d="m44.54,77.6v7.81c0,6.26-4.81,11.41-10.93,11.95v6.85h7.99c1.19,0,2.15.97,2.15,2.15s-.96,2.15-2.15,2.15h-18.13c-1.19,0-2.15-.96-2.15-2.15s.96-2.15,2.15-2.15h7.98v-6.85c-6.12-.54-10.92-5.7-10.92-11.95v-7.81c0-.59.48-1.08,1.08-1.08s1.08.48,1.08,1.08v7.81c0,5.43,4.42,9.85,9.85,9.85s9.86-4.42,9.86-9.85v-7.81c0-.59.48-1.08,1.08-1.08s1.08.48,1.08,1.08Z"></path></g><path class="cls-4" d="m52.02.02c-2.46.42-4.99.91-7.02,2.46-1.76,1.35-2.95,3.36-2.82,5.62.12,2.13,1.15,4.01,1.95,5.94.72,1.74,1.31,3.73.14,5.42-1.2,1.75-3.5,2.49-5.51,2.73-2.69.31-5.47.04-8.1.79-1.92.55-3.76,1.64-4.91,3.31-1.23,1.79-1.21,3.99-.44,5.96.85,2.18,2.65,4.29,2.68,6.72.03,2.87-2.38,4.97-5.18,4.85-1.38-.06-1.38,2.09,0,2.15,5.13.22,8.55-4.87,6.82-9.59-.74-2.01-2.15-3.79-2.62-5.89-.48-2.13.81-3.82,2.61-4.79,2.27-1.23,4.94-1.1,7.44-1.23,2.35-.12,4.72-.45,6.74-1.72,1.78-1.12,3.08-2.85,3.26-4.98.18-2.1-.77-4.08-1.59-5.96-.92-2.08-1.86-4.46-.32-6.51,1.71-2.28,4.81-2.75,7.42-3.2,1.36-.23.78-2.31-.57-2.07Z"></path><path class="cls-4" d="m64.63,3.97c-4.22.59-8.86,1.5-11.31,5.38-1.15,1.81-1.31,3.84-.85,5.9.46,2.04,1.24,3.92.75,6.03-.41,1.76-1.42,3.36-2.82,4.51-1.7,1.38-3.7,1.6-5.81,1.72-2.03.12-4.12.35-5.8,1.62-1.73,1.31-2.26,3.33-1.9,5.41.42,2.46,2.25,4.58,2.17,7.14-.06,2.09-1.31,4-3.14,4.97-1.22.65-.14,2.51,1.09,1.86,3.55-1.9,5-6.16,3.66-9.88-.7-1.94-2.33-4.27-1.61-6.41.63-1.89,2.97-2.36,4.7-2.49,2.16-.17,4.29-.18,6.28-1.16,1.65-.81,3.03-2.15,4-3.7.97-1.55,1.53-3.41,1.51-5.25-.03-2.23-1.21-4.27-1.21-6.48,0-2.15,1.53-3.97,3.3-5.03,2.26-1.36,4.99-1.7,7.56-2.06,1.36-.19.78-2.26-.57-2.07Z"></path><path class="cls-1" d="m12.16,60.35c-.15-1.4-.96-2.77-2.29-3.35-.79-.35-1.6-.44-2.44-.24-.68.16-1.32.54-1.83,1.01-.51.48-.93,1.16-1.08,1.85-.18.84-.06,1.64.29,2.41.23.51.6.96,1.04,1.32,1.08,1.21,2.93,1.42,4.33.68,1.29-.68,2.14-2.22,1.98-3.67Z"></path><path class="cls-1" d="m9.59,68.38c-.07-.77-.61-1.43-1.43-1.43-.72,0-1.51.66-1.43,1.43.93,9.69,1.87,19.38,2.8,29.08.07.77.61,1.43,1.43,1.43.72,0,1.51-.66,1.43-1.43-.93-9.69-1.87-19.38-2.8-29.08Z"></path><path class="cls-4" d="m60.03,60.43c-.28,0-.56-.14-.73-.39-1.97-2.92-1.22-7.32,1.6-9.43.39-.29.95-.21,1.24.18.29.39.21.95-.18,1.24-2.06,1.54-2.63,4.88-1.19,7.02.27.41.17.96-.24,1.23-.15.1-.32.15-.49.15Z"></path><path class="cls-4" d="m55.83,101.69c-.31,0-.61-.16-.77-.45-1.83-3.27-1.23-7.75,1.41-10.42.34-.35.9-.35,1.25,0,.35.34.35.9,0,1.25-2.1,2.13-2.58,5.71-1.12,8.32.24.43.09.97-.34,1.2-.14.08-.29.11-.43.11Z"></path></g></g></svg>