<svg xmlns="http://www.w3.org/2000/svg" id="Capa_1" height="512" viewBox="0 0 497 497" width="512"><g><path d="m379.95 180.689c37.123-37.123 68.943-5.303 106.066-42.427 14.645-14.644 14.645-38.388 0-53.033l-95.459 21.213-268.204 268.205-53.033 95.46c23.431 23.432 61.421 23.431 84.853 0 37.123-37.123 5.303-68.943 42.427-106.066z" fill="#ffd185"></path><path d="m132.96 448.893c10.714-10.714 11.316-18.536 12.515-34.12 1.478-19.218 3.503-45.537 29.912-71.946l183.351-183.351c26.409-26.409 52.728-28.433 71.946-29.912 15.584-1.199 23.406-1.801 34.12-12.515 14.645-14.645 24.142-28.891 21.213-31.82-11.167-11.167-27.623-13.809-41.303-7.944 2.383-17.889-3.287-36.645-17.034-50.392-23.432-23.432-61.421-23.432-84.853 0-37.123 37.123-5.303 68.943-42.426 106.066l-183.351 183.352c-37.123 37.123-68.943 5.303-106.066 42.427-14.645 14.645-14.645 38.388 0 53.033 11.167 11.167 27.623 13.809 41.303 7.944-2.383 17.889 3.287 36.645 17.033 50.392 11.716 11.715 40.208 2.218 63.64-21.214z" fill="#ffe8c2"></path><g fill="#e29d63"><circle cx="132.96" cy="448.893" r="7.5"></circle><circle cx="138.263" cy="337.524" r="7.5"></circle><circle cx="364.04" cy="48.107" r="7.5"></circle><circle cx="90.533" cy="448.893" r="7.5"></circle></g></g></svg>